#!OML:ASF F:\VICON\USERDATA\INSTALL\rory3\rory3.ASF
:FULLY-SPECIFIED
:DEGREES
172
root 4.98012 16.2209 27.3078 19.5745 -55.1397 -7.41638
lowerback 7.55819 -5.60176 -2.75181
upperback -3.33336 -8.16578 -3.94967
thorax -7.95702 -3.9953 -1.45515
lowerneck -6.11722 12.5656 3.8001
upperneck 24.482 16.628 -0.503139
head 9.04333 7.86901 0.801013
rclavicle 2.66371e-014 5.725e-014
rhumerus -66.7479 40.6208 -78.0494
rradius 105.018
rwrist -82.9754
rhand 23.8617 4.32299
rfingers 7.12502
rthumb 48.1141 -17.8364
lclavicle 2.66371e-014 5.725e-014
lhumerus 7.15771 -75.1582 29.7893
lradius 90.0698
lwrist 49.1791
lhand 41.022 21.1814
lfingers 7.12502
lthumb 63.2368 31.0451
rfemur -82.5497 -13.0945 37.5194
rtibia 71.337
rfoot 20.0583 -50.4213
rtoes 48.3667
lfemur -42.2244 7.96174 -27.3627
ltibia 52.0645
lfoot -32.7109 17.1576
ltoes 10.2075
173
root 4.97264 16.1935 27.2761 19.5316 -55.1008 -7.24354
lowerback 7.78391 -5.86222 -3.26495
upperback -3.43735 -8.60126 -4.02316
thorax -8.1467 -4.17948 -1.16375
lowerneck -6.31906 12.8438 3.8309
upperneck 24.4135 16.9402 -0.20765
head 9.03836 8.04672 0.935798
rclavicle -1.24638e-013 -3.81667e-014
rhumerus -66.8618 41.3503 -76.3387
rradius 102.869
rwrist -83.0869
rhand 24.7802 3.70703
rfingers 7.12502
rthumb 48.9593 -18.0455
lclavicle -1.24638e-013 -3.81667e-014
lhumerus 11.1796 -75.289 24.5745
lradius 87.658
lwrist 46.8894
lhand 41.258 21.3087
lfingers 7.12502
lthumb 63.4294 30.9011
rfemur -82.2328 -12.0649 37.7249
rtibia 68.6946
rfoot 25.2401 -47.6503
rtoes 45.93
lfemur -42.72 8.83847 -27.569
ltibia 52.465
lfoot -32.2389 16.4833
ltoes 9.50334
174
root 4.96596 16.1742 27.2524 19.0726 -55.1621 -6.73003
lowerback 8.0917 -6.04338 -3.65492
upperback -3.51317 -8.95897 -4.41884
thorax -8.42344 -4.34236 -1.27608
lowerneck -6.63565 13.0636 4.50103
upperneck 24.5133 17.0969 0.00961004
head 9.17963 8.19122 0.961356
rclavicle 4.07509e-014 -1.59028e-014
rhumerus -66.7428 41.4882 -74.7239
rradius 100.008
rwrist -82.7988
rhand 26.6536 3.12396
rfingers 7.12502
rthumb 50.6749 -17.7371
lclavicle 4.07509e-014 -1.59028e-014
lhumerus 16.662 -75.6012 17.8122
lradius 85.0846
lwrist 44.5016
lhand 40.6008 22.0485
lfingers 7.12502
lthumb 62.8914 32.3864
rfemur -81.7517 -11.0315 37.3868
rtibia 66.2246
rfoot 26.2358 -46.3075
rtoes 44.7482
lfemur -42.9612 9.66714 -28.0062
ltibia 52.7372
lfoot -31.7935 16.0718
ltoes 8.50609
175
root 4.95764 16.1488 27.2353 18.112 -55.2307 -5.56762
lowerback 8.32285 -6.31711 -4.35295
upperback -3.59039 -9.49059 -4.91716
thorax -8.63187 -4.57939 -1.31299
lowerneck -6.78917 13.3945 5.07478
upperneck 24.4915 17.4008 0.297515
head 9.23765 8.40873 1.0224
rclavicle 4.77083e-015 1.59028e-014
rhumerus -66.4613 41.8066 -73.3103
rradius 97.0363
rwrist -82.0774
rhand 28.3178 2.95301
rfingers 7.12502
rthumb 52.1884 -17.04
lclavicle 4.77083e-015 1.59028e-014
lhumerus 20.776 -75.6587 12.4209
lradius 82.2773
lwrist 41.8444
lhand 39.6763 22.902
lfingers 7.12502
lthumb 62.1263 34.2376
rfemur -81.5174 -10.2137 36.5569
rtibia 64.0314
rfoot 26.0703 -45.2301
rtoes 43.8543
lfemur -43.1313 10.2944 -28.8438
ltibia 52.8684
lfoot -31.4253 15.7166
ltoes 7.54437
176
root 4.95326 16.1332 27.2197 16.7913 -55.3271 -4.01202
lowerback 8.60003 -6.49661 -5.23057
upperback -3.70687 -9.93459 -5.41477
thorax -8.87982 -4.76089 -1.2606
lowerneck -6.46023 13.624 5.29504
upperneck 24.0268 17.6596 0.429778
head 9.03207 8.57862 1.01746
rclavicle -8.44835e-014 5.08889e-014
rhumerus -66.3366 42.1871 -71.8429
rradius 94.0179
rwrist -80.8921
rhand 29.9319 3.12458
rfingers 7.12502
rthumb 53.6457 -15.9502
lclavicle -8.44835e-014 5.08889e-014
lhumerus 24.7626 -75.6125 7.50142
lradius 79.3377
lwrist 38.8104
lhand 39.8052 22.3099
lfingers 7.12502
lthumb 62.2335 33.51
rfemur -81.3936 -9.51479 35.19
rtibia 62.0595
rfoot 24.1617 -44.8856
rtoes 44.6606
lfemur -43.1312 10.8381 -29.9431
ltibia 52.8504
lfoot -31.1676 15.243
ltoes 7.15353
177
root 4.95137 16.1248 27.2052 16.0946 -55.4102 -3.31631
lowerback 8.93266 -6.49747 -5.60753
upperback -3.8748 -10.0801 -5.75963
thorax -9.26885 -4.81247 -1.35007
lowerneck -6.15435 13.6444 5.39996
upperneck 23.7836 17.6411 0.597504
head 8.88629 8.60576 1.01854
rclavicle 7.25564e-014 -9.54166e-015
rhumerus -66.477 42.229 -70.2602
rradius 90.855
rwrist -79.8286
rhand 31.2829 3.09609
rfingers 7.12502
rthumb 54.8565 -15.1459
lclavicle 7.25564e-014 -9.54166e-015
lhumerus 29.6314 -75.5692 2.08877
lradius 76.2775
lwrist 35.35
lhand 40.6916 21.4711
lfingers 7.12502
lthumb 62.966 31.7079
rfemur -81.1352 -8.64359 34.1403
rtibia 60.1824
rfoot 23.0183 -44.2634
rtoes 45.2721
lfemur -43.0681 11.3463 -30.4662
ltibia 52.8549
lfoot -30.9488 14.9969
ltoes 6.5723
178
root 4.94398 16.0983 27.1921 15.3774 -55.5188 -2.63664
lowerback 9.21256 -6.51178 -6.07648
upperback -3.9419 -10.2449 -6.11483
thorax -9.5041 -4.8728 -1.41193
lowerneck -6.44292 13.6921 5.66108
upperneck 23.9651 17.5865 0.938647
head 8.99317 8.62843 1.11727
rclavicle -5.26779e-014 5.08889e-014
rhumerus -66.1516 42.2663 -68.5516
rradius 87.6412
rwrist -79.5783
rhand 31.9505 2.37187
rfingers 7.12502
rthumb 55.4515 -15.4351
lclavicle -5.26779e-014 5.08889e-014
lhumerus 33.5322 -75.1388 -2.37206
lradius 73.1144
lwrist 31.584
lhand 41.4759 22.6851
lfingers 7.12502
lthumb 63.6068 32.0233
rfemur -80.964 -7.92859 33.6417
rtibia 58.4408
rfoot 25.7136 -41.7528
rtoes 43.197
lfemur -43.0361 12.0138 -30.9751
ltibia 52.9097
lfoot -30.6009 14.6373
ltoes 6.24248
179
root 4.93775 16.0678 27.1739 14.5566 -55.5659 -1.83302
lowerback 9.46739 -6.59981 -6.68156
upperback -3.92457 -10.5132 -6.44003
thorax -9.60138 -4.97731 -1.36251
lowerneck -6.64142 13.842 5.95045
upperneck 23.8488 17.7223 1.05011
head 9.01096 8.72839 1.14149
rclavicle 8.40859e-014 6.36111e-015
rhumerus -65.5478 42.5001 -66.8436
rradius 84.4836
rwrist -79.4056
rhand 32.2255 1.76419
rfingers 7.12502
rthumb 55.6959 -15.8589
lclavicle 8.40859e-014 6.36111e-015
lhumerus 35.8792 -74.3833 -5.24372
lradius 69.9273
lwrist 27.8428
lhand 42.2231 22.1456
lfingers 7.12502
lthumb 64.2104 30.5845
rfemur -80.7524 -7.17914 32.8823
rtibia 56.8289
rfoot 25.4543 -40.7143
rtoes 42.8061
lfemur -43.1212 12.8069 -31.5813
ltibia 53.1293
lfoot -30.152 14.3066
ltoes 4.82266
180
root 4.93767 16.0488 27.151 13.4444 -55.5286 -0.642125
lowerback 9.73303 -6.66183 -7.42733
upperback -3.90527 -10.7834 -6.84716
thorax -9.69581 -5.07833 -1.32561
lowerneck -6.8465 13.9407 6.1686
upperneck 23.7044 17.7973 1.15782
head 9.01157 8.79461 1.16631
rclavicle 1.0138e-014 -3.49861e-014
rhumerus -65.1047 42.6086 -65.2212
rradius 81.5182
rwrist -79.3978
rhand 32.1932 1.03457
rfingers 7.12502
rthumb 55.6672 -16.6102
lclavicle 1.0138e-014 -3.49861e-014
lhumerus 38.5869 -73.6633 -8.40092
lradius 66.8764
lwrist 24.3824
lhand 42.0911 22.0072
lfingers 7.12502
lthumb 64.1043 30.6082
rfemur -80.6205 -6.19431 31.132
rtibia 55.4579
rfoot 22.6015 -41.3386
rtoes 44.5802
lfemur -43.1881 13.4488 -32.4179
ltibia 53.3591
lfoot -29.7745 13.8927
ltoes 3.98178
181
root 4.93089 15.9934 27.133 12.3953 -55.3723 0.462854
lowerback 10.1376 -6.75763 -8.19334
upperback -3.98254 -11.1243 -7.13052
thorax -9.94728 -5.1955 -1.11529
lowerneck -7.02077 14.0205 6.0909
upperneck 23.5062 17.8481 1.46287
head 8.93659 8.84832 1.28156
rclavicle -5.10877e-014 -1.27222e-014
rhumerus -64.6362 42.8498 -63.4234
rradius 78.6348
rwrist -79.9704
rhand 32.3712 -0.0507106
rfingers 7.12502
rthumb 55.8252 -17.5752
lclavicle -5.10877e-014 -1.27222e-014
lhumerus 40.1943 -73.0575 -10.2661
lradius 63.7853
lwrist 20.8896
lhand 41.542 22.2353
lfingers 7.12502
lthumb 63.6605 31.4956
rfemur -80.6545 -5.8546 30.6943
rtibia 54.1724
rfoot 25.8604 -38.6021
rtoes 41.9271
lfemur -43.3886 13.9843 -33.1702
ltibia 53.7696
lfoot -29.5285 13.3966
ltoes 3.03644
182
root 4.92576 15.944 27.1121 11.2009 -55.301 1.72867
lowerback 10.5765 -6.72773 -9.1369
upperback -4.09952 -11.3238 -7.28922
thorax -10.204 -5.22152 -0.700629
lowerneck -7.16678 14.0653 5.55581
upperneck 23.2443 17.9 1.87826
head 8.77527 8.88059 1.48148
rclavicle 8.62725e-014 5.725e-014
rhumerus -64.0982 43.0182 -61.1714
rradius 75.5169
rwrist -80.145
rhand 33.0514 -0.112659
rfingers 7.12502
rthumb 56.4274 -17.1659
lclavicle 8.62725e-014 5.725e-014
lhumerus 40.9459 -72.2307 -10.7987
lradius 60.649
lwrist 16.9751
lhand 41.7168 21.6992
lfingers 7.12502
lthumb 63.8021 30.7521
rfemur -80.5926 -5.1477 29.5717
rtibia 53.0236
rfoot 27.5282 -36.5379
rtoes 39.2198
lfemur -43.5936 14.5636 -34.0347
ltibia 54.254
lfoot -29.3911 12.889
ltoes 2.54596
183
root 4.92662 15.9193 27.0853 10.4339 -55.1724 2.50849
lowerback 10.8789 -6.52569 -9.69202
upperback -4.10742 -11.1859 -7.33006
thorax -10.3082 -5.11122 -0.442596
lowerneck -7.61493 13.8785 4.54434
upperneck 23.1281 17.6689 2.43147
head 8.65111 8.75349 1.78468
rclavicle 5.10877e-014 0
rhumerus -63.4535 42.6955 -58.4175
rradius 72.1823
rwrist -79.5421
rhand 34.2265 0.627437
rfingers 7.12502
rthumb 57.4613 -15.5677
lclavicle 5.10877e-014 0
lhumerus 42.5589 -70.9853 -11.5883
lradius 57.5599
lwrist 12.8605
lhand 42.0436 21.0375
lfingers 7.12502
lthumb 64.066 29.6964
rfemur -80.359 -3.46347 27.0222
rtibia 52.0422
rfoot 24.0478 -38.2831
rtoes 41.0985
lfemur -43.8218 15.0488 -34.5745
ltibia 54.7784
lfoot -29.3149 12.3876
ltoes 2.15597
184
root 4.91815 15.8464 27.0676 9.76655 -54.996 3.10683
lowerback 11.3275 -6.85979 -10.0646
upperback -4.1237 -11.8471 -7.82164
thorax -10.6225 -5.41335 -0.599388
lowerneck -7.7935 14.1597 5.76264
upperneck 23.1942 17.8635 2.40395
head 8.83835 8.93318 1.66434
rclavicle -2.78299e-015 -8.90555e-014
rhumerus -62.2731 42.902 -57.0837
rradius 68.9802
rwrist -78.6734
rhand 35.2806 0.781208
rfingers 7.12502
rthumb 58.3813 -14.593
lclavicle -2.78299e-015 -8.90555e-014
lhumerus 41.4711 -70.0423 -11.795
lradius 55.0077
lwrist 8.81561
lhand 41.9514 20.8697
lfingers 7.12502
lthumb 63.9917 29.6406
rfemur -80.1782 -2.42969 25.9309
rtibia 51.0963
rfoot 25.8756 -36.3759
rtoes 37.6195
lfemur -44.1449 15.3901 -35.0055
ltibia 55.514
lfoot -29.1662 12.3413
ltoes 0.968945
185
root 4.91402 15.7789 27.0535 8.70799 -54.8275 4.17109
lowerback 11.8379 -7.03704 -10.6836
upperback -4.19528 -12.3439 -8.18267
thorax -10.9675 -5.60619 -0.507472
lowerneck -7.88708 14.3006 6.25831
upperneck 22.9763 17.986 2.37308
head 8.83742 9.03085 1.60443
rclavicle -6.36111e-014 2.8625e-014
rhumerus -61.0505 43.1062 -55.144
rradius 66.1513
rwrist -78.039
rhand 36.2292 0.479484
rfingers 7.12502
rthumb 59.2028 -14.1113
lclavicle -6.36111e-014 2.8625e-014
lhumerus 40.376 -68.9348 -11.2658
lradius 52.3435
lwrist 4.67527
lhand 41.9302 20.3174
lfingers 7.12502
lthumb 63.9746 29.114
rfemur -80.1603 -1.59102 24.5234
rtibia 50.4159
rfoot 27.5501 -34.6617
rtoes 34.1796
lfemur -44.3638 15.5639 -35.7
ltibia 56.2016
lfoot -29.2431 12.2033
ltoes 0.0941393
186
root 4.91407 15.7176 27.0454 7.79098 -54.7446 5.15864
lowerback 12.1897 -7.09781 -11.1764
upperback -4.30102 -12.6458 -8.49694
thorax -11.2786 -5.71373 -0.484302
lowerneck -7.80718 14.3867 6.47312
upperneck 22.6007 18.0781 2.38567
head 8.71693 9.10142 1.56625
rclavicle -2.127e-014 -3.49861e-014
rhumerus -59.653 42.9636 -52.8168
rradius 63.1526
rwrist -76.9772
rhand 36.815 0.478039
rfingers 7.12502
rthumb 59.7067 -13.6066
lclavicle -2.127e-014 -3.49861e-014
lhumerus 39.5809 -67.667 -10.6825
lradius 49.7546
lwrist 0.510797
lhand 41.7842 19.6779
lfingers 7.12502
lthumb 63.8567 28.6502
rfemur -80.2263 -0.605015 22.865
rtibia 49.9305
rfoot 25.9944 -35.6139
rtoes 35.1783
lfemur -44.7059 15.6752 -36.369
ltibia 56.9376
lfoot -29.5079 11.907
ltoes -0.0594119
